<svg xmlns="http://www.w3.org/2000/svg" xmlns:xlink="http://www.w3.org/1999/xlink" width="500" zoomAndPan="magnify" viewBox="0 0 375 225" height="300" preserveAspectRatio="xMidYMid meet" version="1.0"><defs><g/><clipPath id="74651fc8d1"><path d="M 0 5.644531 L 130 5.644531 L 130 219 L 0 219 Z M 0 5.644531 " clip-rule="nonzero"/></clipPath><clipPath id="993fdda335"><path d="M 97 72 L 154.5 72 L 154.5 120 L 97 120 Z M 97 72 " clip-rule="nonzero"/></clipPath></defs><path fill="#e98f3e" d="M 64.515625 97.738281 C 45.074219 102.09375 25.398438 104.199219 5.175781 104.621094 L 4.894531 104.621094 C 6.570312 95.472656 10.027344 87.441406 14.691406 79.886719 C 17.472656 75.386719 20.695312 71.226562 24.355469 67.410156 C 28.019531 63.59375 32.039062 60.203125 36.421875 57.242188 C 36.78125 57.5625 37.128906 57.886719 37.46875 58.210938 C 41.238281 61.832031 45.417969 64.871094 49.457031 67.808594 C 50.875 68.835938 52.339844 69.902344 53.746094 70.964844 C 53.988281 71.125 54.207031 71.316406 54.398438 71.535156 C 54.410156 71.5625 54.417969 71.589844 54.421875 71.621094 C 55.992188 80.019531 59.605469 87.53125 63.105469 94.789062 C 63.570312 95.761719 64.046875 96.75 64.515625 97.738281 Z M 64.515625 97.738281 " fill-opacity="1" fill-rule="nonzero"/><path fill="#e98f3e" d="M 32.007812 157.738281 C 28.667969 161.832031 25.542969 166.082031 22.636719 170.496094 C 22.628906 170.5 22.625 170.507812 22.621094 170.515625 L 22.621094 170.535156 C 18.109375 165.386719 14.296875 159.757812 11.191406 153.652344 L 11.367188 153.652344 C 13.71875 153.640625 16.050781 153.882812 18.351562 154.371094 C 19.804688 154.6875 20.902344 155.523438 22.292969 156.585938 L 22.378906 156.652344 C 22.238281 157.441406 22.335938 158.203125 22.675781 158.933594 C 23.324219 160.324219 24.726562 161.15625 26.414062 161.15625 C 28.105469 161.15625 29.8125 160.101562 31 158.28125 C 31.171875 158.019531 31.328125 157.753906 31.46875 157.472656 Z M 32.007812 157.738281 " fill-opacity="1" fill-rule="nonzero"/><path fill="#e98f3e" d="M 64.347656 111.023438 C 64.203125 111.472656 63.949219 111.847656 63.585938 112.144531 C 58.117188 116.910156 56.605469 125.164062 59.996094 131.765625 C 60.03125 131.828125 60.058594 131.894531 60.082031 131.960938 C 60.082031 131.972656 60.082031 131.988281 60.082031 132 C 60.066406 132.117188 60.046875 132.226562 60.03125 132.355469 C 56.707031 134.515625 53.503906 136.839844 50.425781 139.335938 C 47.90625 141.375 45.484375 143.503906 43.15625 145.726562 C 42.722656 145.605469 42.277344 145.480469 41.824219 145.351562 C 35.703125 143.621094 34.585938 140.941406 34.769531 137.175781 C 34.785156 136.824219 34.757812 136.472656 34.683594 136.128906 C 33.945312 132.273438 31.453125 129.96875 28.023438 129.96875 C 27.105469 129.980469 26.207031 130.121094 25.328125 130.394531 C 22.871094 131.144531 20.664062 132.347656 18.699219 134.003906 C 17.582031 134.914062 16.320312 135.546875 14.921875 135.890625 C 11.640625 136.761719 8.648438 138.078125 5.769531 139.382812 C 3.957031 132.539062 3.101562 125.328125 3.207031 117.753906 L 3.589844 117.734375 C 11.308594 117.332031 18.601562 117.019531 25.890625 116.5625 C 38.855469 115.738281 51.675781 113.894531 64.347656 111.023438 Z M 64.347656 111.023438 " fill-opacity="1" fill-rule="nonzero"/><path fill="#e98f3e" d="M 103.921875 169.640625 C 103.503906 171.847656 103.007812 174.121094 102.429688 176.484375 C 100.734375 183.386719 98.246094 186.582031 93.554688 187.890625 C 92.9375 188.074219 92.355469 188.332031 91.804688 188.660156 L 91.574219 188.789062 C 90.085938 189.578125 88.039062 190.910156 87.4375 193.308594 C 87.28125 193.929688 87.234375 194.558594 87.296875 195.195312 C 69.207031 197.214844 48.355469 192.726562 32.910156 179.820312 C 34.796875 175.121094 38.25 169.886719 42.859375 164.625 C 44.828125 165.871094 46.800781 167.070312 48.742188 168.246094 C 51.445312 169.886719 54.242188 171.574219 56.878906 173.339844 C 58.824219 174.640625 61.027344 175.648438 64.019531 176.609375 C 65 176.929688 66 177.09375 67.03125 177.101562 C 69.0625 177.101562 70.976562 176.433594 72.882812 175.058594 C 75.867188 172.914062 77.347656 169.992188 78.652344 167.410156 C 78.984375 166.753906 79.296875 166.132812 79.628906 165.539062 C 80.3125 164.324219 80.632812 164.203125 81.195312 164.089844 C 85.722656 163.179688 87.703125 160.609375 87.433594 156.027344 C 87.339844 154.46875 87.691406 152.992188 88.34375 151.339844 C 89.011719 151.796875 89.675781 152.253906 90.332031 152.707031 C 92.34375 154.078125 94.246094 155.375 95.921875 156.902344 C 97.058594 157.941406 98.765625 159.273438 101.0625 159.582031 C 102.019531 162.9375 102.972656 166.292969 103.921875 169.640625 Z M 103.921875 169.640625 " fill-opacity="1" fill-rule="nonzero"/><path fill="#e98f3e" d="M 129.089844 63.4375 L 129.015625 63.53125 C 120.378906 74.117188 109.761719 81.5 98.027344 87.046875 C 98.082031 84.796875 98.160156 82.554688 98.277344 80.308594 C 98.621094 73.714844 96.746094 68.523438 92.703125 64.882812 L 92.046875 64.289062 C 89.648438 62.125 87.183594 59.898438 84.332031 58.042969 C 85.574219 57.480469 86.914062 56.445312 87.402344 54.441406 C 87.785156 52.867188 87.839844 51.328125 87.894531 49.972656 C 87.945312 48.554688 87.992188 47.324219 88.347656 46.296875 C 88.53125 45.777344 88.597656 45.246094 88.546875 44.699219 C 102.703125 46.65625 117.636719 52.769531 129.078125 63.433594 Z M 129.089844 63.4375 " fill-opacity="1" fill-rule="nonzero"/><path fill="#e98f3e" d="M 153.6875 131.910156 C 149.832031 153.367188 139.105469 170.050781 121.832031 182.355469 C 121.390625 180.734375 120.949219 179.113281 120.507812 177.496094 C 122.785156 172.980469 124.855469 168.390625 126.886719 163.902344 C 128.210938 160.960938 129.582031 157.917969 130.988281 154.972656 C 133.496094 149.722656 132.957031 146.039062 129.105469 141.851562 C 128.171875 140.839844 127.203125 139.878906 126.269531 138.945312 C 125.609375 138.289062 124.980469 137.664062 124.363281 137.019531 L 124.265625 136.921875 C 121.132812 133.6875 117.945312 130.367188 114.113281 127.75 C 127.351562 126.746094 140.429688 128.082031 153.6875 131.910156 Z M 153.6875 131.910156 " fill-opacity="1" fill-rule="nonzero"/><g clip-path="url(#74651fc8d1)"><path fill="#000000" d="M 127.886719 153.503906 C 124.898438 159.800781 122.171875 166.234375 119.152344 172.511719 C 117.378906 176.203125 115.507812 179.847656 113.414062 183.386719 C 112.691406 184.609375 112.277344 186.015625 111.773438 187.355469 C 111.609375 187.796875 111.0625 188.617188 112.019531 188.640625 C 114.460938 188.710938 113.386719 190.195312 113.171875 191.292969 C 113.035156 191.839844 112.824219 192.351562 112.542969 192.839844 C 110.273438 197.433594 110.914062 202.101562 112.3125 206.730469 C 113.027344 209.089844 114.066406 211.347656 114.90625 213.671875 C 115.460938 215.203125 115.925781 216.867188 114.503906 218.128906 C 113.082031 219.390625 111.445312 218.757812 110.007812 218.0625 C 106.261719 216.234375 104.035156 212.773438 101.75 209.570312 C 99.871094 206.902344 97.808594 204.382812 95.558594 202.015625 C 94.132812 200.503906 92.84375 198.882812 91.699219 197.148438 C 91.0625 196.195312 90.722656 195.410156 90.695312 194.726562 C 90.648438 193.585938 91.460938 192.71875 93.179688 191.804688 C 93.585938 191.550781 94.015625 191.34375 94.46875 191.183594 C 101.519531 189.234375 104.1875 183.683594 105.753906 177.300781 C 105.808594 177.089844 105.859375 176.871094 105.910156 176.65625 C 106.917969 172.527344 107.699219 168.359375 108.257812 164.148438 C 108.679688 160.886719 109.640625 157.761719 111.449219 154.957031 C 111.820312 154.382812 112.394531 153.796875 111.75 153.035156 C 111.066406 152.210938 110.359375 152.578125 109.625 152.972656 C 108.292969 153.695312 106.945312 154.386719 105.609375 155.097656 C 103.265625 156.34375 101.683594 156.597656 99.964844 155.660156 C 99.335938 155.300781 98.761719 154.875 98.234375 154.375 C 95.273438 151.664062 91.777344 149.703125 88.605469 147.304688 C 87.339844 146.339844 86.710938 146.710938 86.101562 147.988281 C 84.859375 150.605469 83.84375 153.222656 84.023438 156.234375 C 84.1875 159.054688 83.378906 160.164062 80.519531 160.742188 C 78.542969 161.144531 77.539062 162.269531 76.644531 163.882812 C 74.996094 166.847656 73.847656 170.164062 70.894531 172.289062 C 69.074219 173.601562 67.25 174.0625 65.070312 173.359375 C 62.855469 172.644531 60.707031 171.785156 58.78125 170.5 C 54.34375 167.535156 49.699219 164.902344 45.1875 162.058594 C 43.433594 160.949219 41.695312 159.808594 40 158.605469 C 38.167969 157.292969 36.261719 156.109375 34.273438 155.054688 C 32.804688 154.28125 31.289062 153.609375 29.730469 153.039062 C 29.316406 152.890625 28.835938 152.476562 28.414062 152.9375 C 27.992188 153.394531 28.515625 153.769531 28.691406 154.179688 C 29.148438 155.246094 27.617188 157.730469 26.414062 157.738281 C 25.453125 157.738281 25.710938 157.066406 26.09375 156.609375 C 26.476562 156.152344 27.0625 155.753906 26.320312 155.285156 C 23.972656 153.78125 22.171875 151.707031 19.070312 151.039062 C 15.941406 150.367188 12.777344 150.109375 9.582031 150.265625 C 7.460938 150.367188 5.359375 150.609375 3.273438 150.992188 C 2.253906 151.175781 1.082031 150.777344 0.5625 149.820312 C 0.046875 148.863281 0.472656 147.730469 1.226562 146.960938 C 2.84375 145.308594 4.542969 143.6875 6.671875 142.726562 L 6.730469 142.699219 C 9.691406 141.363281 12.652344 140.035156 15.796875 139.199219 C 17.679688 138.722656 19.375 137.871094 20.878906 136.640625 C 22.484375 135.28125 24.292969 134.292969 26.300781 133.675781 C 29.144531 132.832031 30.773438 133.878906 31.328125 136.773438 C 31.347656 136.851562 31.355469 136.925781 31.359375 137.003906 C 31.042969 143.558594 34.65625 146.734375 40.34375 148.472656 C 40.523438 148.53125 40.710938 148.585938 40.894531 148.636719 C 44.585938 149.683594 48.265625 150.652344 52.0625 151.179688 C 53.414062 151.355469 54.734375 151.664062 56.027344 152.105469 C 57.226562 152.527344 58.347656 153.105469 59.386719 153.835938 C 60.839844 154.863281 61.261719 154.195312 61.679688 152.910156 C 62.183594 151.351562 62.1875 149.753906 62.121094 148.164062 C 62.121094 147.953125 62.105469 147.738281 62.101562 147.53125 C 61.960938 142.460938 62.757812 137.476562 63.46875 132.472656 C 63.574219 131.753906 63.464844 131.070312 63.140625 130.417969 C 63.109375 130.351562 63.078125 130.28125 63.042969 130.210938 C 60.417969 125.097656 61.542969 118.464844 65.832031 114.730469 C 67.316406 113.433594 67.867188 111.832031 67.921875 110.195312 C 67.933594 109.628906 67.898438 109.070312 67.816406 108.515625 C 67.445312 105.933594 68.601562 103.761719 68.957031 101.394531 C 69.101562 100.417969 69.183594 99.621094 68.726562 98.65625 C 68.464844 98.089844 68.199219 97.515625 67.933594 96.953125 C 63.941406 88.535156 59.523438 80.296875 57.792969 71 C 57.550781 69.703125 56.828125 69.007812 55.8125 68.238281 C 50.421875 64.167969 44.75 60.457031 39.84375 55.746094 C 39.695312 55.605469 39.542969 55.460938 39.390625 55.320312 C 36.917969 53.019531 34.148438 51.039062 31.296875 49.226562 C 26.761719 46.351562 23.375 42.589844 21.878906 37.3125 C 21.75 36.855469 21.640625 36.347656 21.363281 35.976562 C 16.136719 28.925781 19.671875 21.621094 21.3125 14.679688 C 21.980469 11.863281 25.347656 9.515625 28.207031 7.71875 C 30.90625 6.027344 33.90625 5.644531 36.964844 6.121094 C 42.902344 7.058594 47.546875 12.511719 47.675781 18.503906 C 47.804688 24.820312 43.539062 30.164062 37.210938 31.570312 C 35.46875 31.96875 33.730469 31.949219 32 31.511719 C 31.316406 31.335938 30.632812 31.054688 29.949219 30.90625 C 28.769531 30.652344 27.027344 30.4375 26.589844 31.222656 C 25.9375 32.386719 27.710938 32.792969 28.445312 33.503906 C 31.40625 36.394531 34.855469 38.765625 37.1875 42.289062 C 38.164062 43.765625 39.847656 44.285156 41.394531 44.890625 C 45.492188 46.484375 49.550781 48.082031 52.992188 50.949219 C 53.894531 51.660156 54.917969 52.050781 56.066406 52.125 C 58.621094 52.367188 61.078125 52.988281 63.441406 53.988281 C 63.933594 54.199219 64.480469 54.671875 65.003906 54.289062 C 65.640625 53.804688 65.230469 53.09375 65.089844 52.507812 C 64.90625 51.746094 64.664062 51.011719 64.351562 50.292969 L 62.003906 46.59375 C 61.96875 46.539062 61.933594 46.484375 61.898438 46.425781 L 62.324219 46.289062 C 60.757812 42.890625 60.691406 39.445312 62.871094 36.152344 C 65.25 32.570312 68.980469 32.042969 73.027344 32.179688 C 77.949219 32.355469 81.289062 34.429688 82.492188 39.285156 C 82.945312 41.089844 82.664062 43.113281 84.449219 44.257812 C 84.597656 44.351562 84.75 44.433594 84.90625 44.503906 C 85.101562 44.675781 85.175781 44.890625 85.132812 45.148438 C 84.148438 47.90625 84.746094 50.851562 84.070312 53.636719 C 83.769531 54.878906 82.5625 55.109375 81.441406 55.378906 C 80.609375 55.582031 79.390625 55.355469 79.292969 56.769531 C 79.214844 58.007812 79.277344 59.089844 80.609375 59.8125 C 84.285156 61.8125 87.339844 64.671875 90.410156 67.433594 C 94.109375 70.765625 95.101562 75.417969 94.855469 80.136719 C 94.707031 82.964844 94.617188 85.792969 94.566406 88.621094 C 94.484375 92.980469 94.492188 97.335938 94.515625 101.699219 C 94.550781 103.214844 94.503906 104.730469 94.378906 106.246094 C 94.027344 109.699219 94.835938 111.570312 98.128906 112.765625 C 98.960938 113.070312 99.777344 113.402344 100.578125 113.757812 C 102.367188 114.550781 104.085938 115.453125 105.785156 116.40625 C 107.066406 117.125 108.332031 117.867188 109.601562 118.613281 C 110.285156 119.011719 111.03125 119.28125 111.332031 120.269531 C 109.695312 120.972656 108.5625 119.835938 107.195312 119.558594 C 107.300781 120.761719 108.324219 121.019531 108.742188 121.734375 C 109.011719 122.191406 109.667969 122.628906 109.199219 123.175781 C 108.671875 123.78125 108.03125 123.460938 107.527344 122.984375 C 106.480469 121.996094 105.417969 121.027344 104.132812 120.351562 C 103.78125 120.167969 103.449219 119.941406 102.765625 120.457031 C 104.757812 122.980469 105.238281 126.367188 108.347656 128.339844 C 108.574219 128.484375 108.8125 128.617188 109.054688 128.738281 C 114.066406 131.25 117.996094 135.355469 121.875 139.402344 C 123.421875 141.011719 125.066406 142.539062 126.566406 144.179688 C 129.542969 147.398438 129.761719 149.546875 127.886719 153.503906 Z M 127.886719 153.503906 " fill-opacity="1" fill-rule="nonzero"/></g><g clip-path="url(#993fdda335)"><path fill="#e98f3e" d="M 154.445312 119.089844 C 140.125 116.777344 125.992188 115.167969 111.835938 115.929688 C 111.738281 115.871094 111.648438 115.820312 111.566406 115.777344 C 111.484375 115.734375 111.417969 115.699219 111.339844 115.65625 L 111.03125 115.472656 C 107.359375 113.320312 103.570312 111.097656 99.304688 109.542969 C 99.019531 109.4375 98.777344 109.347656 98.574219 109.253906 L 97.726562 107.375 C 97.726562 107.144531 97.757812 106.886719 97.785156 106.589844 C 97.925781 104.988281 97.976562 103.386719 97.941406 101.78125 L 97.941406 101.671875 C 97.941406 101.472656 97.941406 101.273438 97.941406 101.078125 C 104.6875 97.339844 111.558594 93.886719 117.808594 89.53125 C 124.789062 84.667969 131 78.703125 137.945312 72.878906 C 138.003906 72.828125 138.0625 72.78125 138.125 72.726562 C 145.316406 81.910156 150.339844 92.070312 152.777344 103.445312 C 153.867188 108.601562 154.421875 113.816406 154.445312 119.089844 Z M 154.445312 119.089844 " fill-opacity="1" fill-rule="nonzero"/></g><g fill="#100f0d" fill-opacity="1"><g transform="translate(190.349478, 146.694131)"><g><path d="M 34.878906 -68.386719 C 33.851562 -68.386719 33.253906 -67.960938 32.910156 -67.019531 L 23.335938 -42.484375 L 13.761719 -67.019531 C 13.421875 -67.960938 12.824219 -68.386719 11.796875 -68.386719 L 3.25 -68.386719 C 1.964844 -68.386719 1.367188 -67.617188 1.878906 -66.421875 L 17.523438 -28.382812 L 17.523438 -1.710938 C 17.523438 -0.597656 18.121094 0 19.234375 0 L 27.441406 0 C 28.550781 0 29.152344 -0.597656 29.152344 -1.710938 L 29.152344 -28.382812 L 44.792969 -66.421875 C 45.308594 -67.617188 44.707031 -68.386719 43.425781 -68.386719 Z M 34.878906 -68.386719 "/></g></g></g><g fill="#100f0d" fill-opacity="1"><g transform="translate(237.024418, 146.694131)"><g><path d="M 30.519531 -68.386719 C 29.578125 -68.386719 29.152344 -67.875 29.152344 -67.019531 L 29.152344 -30.945312 L 28.636719 -30.945312 L 15.644531 -67.277344 C 15.386719 -68.046875 14.875 -68.386719 14.105469 -68.386719 L 5.640625 -68.386719 C 4.789062 -68.386719 4.273438 -67.875 4.273438 -67.019531 L 4.273438 -1.367188 C 4.273438 -0.511719 4.789062 0 5.640625 0 L 14.53125 0 C 15.472656 0 15.898438 -0.511719 15.898438 -1.367188 L 15.898438 -37.613281 L 16.328125 -37.613281 L 29.40625 -1.109375 C 29.664062 -0.34375 30.175781 0 30.945312 0 L 39.410156 0 C 40.261719 0 40.777344 -0.511719 40.777344 -1.367188 L 40.777344 -67.019531 C 40.777344 -67.875 40.261719 -68.386719 39.410156 -68.386719 Z M 30.519531 -68.386719 "/></g></g></g><g fill="#100f0d" fill-opacity="1"><g transform="translate(282.075133, 146.694131)"><g><path d="M 38.554688 -56.078125 C 38.554688 -64.113281 34.195312 -68.386719 26.160156 -68.386719 L 5.640625 -68.386719 C 4.789062 -68.386719 4.273438 -67.960938 4.273438 -67.019531 L 4.273438 -1.367188 C 4.273438 -0.511719 4.789062 0 5.640625 0 L 26.160156 0 C 34.195312 0 38.554688 -4.273438 38.554688 -12.308594 L 38.554688 -28.039062 C 38.554688 -31.203125 36.246094 -33.597656 33.167969 -34.109375 L 33.167969 -34.28125 C 36.246094 -34.792969 38.554688 -37.1875 38.554688 -40.347656 Z M 27.183594 -43.171875 C 27.183594 -41.03125 25.988281 -39.835938 23.765625 -39.835938 L 15.984375 -39.835938 L 15.984375 -57.105469 L 23.765625 -57.105469 C 26.074219 -57.105469 27.183594 -55.90625 27.183594 -53.683594 Z M 27.183594 -14.703125 C 27.183594 -12.394531 25.988281 -11.285156 23.765625 -11.285156 L 15.984375 -11.285156 L 15.984375 -28.550781 L 23.765625 -28.550781 C 26.074219 -28.550781 27.183594 -27.355469 27.183594 -25.132812 Z M 27.183594 -14.703125 "/></g></g></g><g fill="#100f0d" fill-opacity="1"><g transform="translate(324.903227, 146.694131)"><g><path d="M 45.476562 0 C 46.503906 0 46.847656 -0.511719 46.675781 -1.453125 L 32.484375 -67.191406 C 32.3125 -68.046875 31.800781 -68.386719 31.03125 -68.386719 L 19.148438 -68.386719 C 18.378906 -68.386719 17.867188 -68.046875 17.695312 -67.191406 L 3.503906 -1.453125 C 3.25 -0.511719 3.675781 0 4.617188 0 L 13.761719 0 C 14.53125 0 14.960938 -0.425781 15.132812 -1.195312 L 17.4375 -13.675781 L 32.65625 -13.675781 L 35.050781 -1.195312 C 35.21875 -0.425781 35.648438 0 36.417969 0 Z M 30.519531 -23.59375 L 19.574219 -23.59375 L 25.046875 -53.429688 Z M 30.519531 -23.59375 "/></g></g></g></svg>